<?xml version="1.0" encoding="us-ascii" standalone="no"?><svg xmlns="http://www.w3.org/2000/svg" xmlns:xlink="http://www.w3.org/1999/xlink" contentStyleType="text/css" height="1334px" preserveAspectRatio="none" style="width:2184px;height:1334px;background:#FFFFFF;" version="1.1" viewBox="0 0 2184 1334" width="2184px" zoomAndPan="magnify"><defs/><g><!--class helper_objects.interfaces.block_interface.Block--><g id="elem_helper_objects.interfaces.block_interface.Block"><rect codeLine="3" fill="#F1F1F1" height="276.815" id="helper_objects.interfaces.block_interface.Block" rx="2.5" ry="2.5" style="stroke:#181818;stroke-width:0.5;" width="372" x="1766.5" y="655"/><ellipse cx="1930.75" cy="671" fill="#ADD1B2" rx="11" ry="11" style="stroke:#181818;stroke-width:1.0;"/><path d="M1933.7188,676.6406 Q1933.1406,676.9375 1932.5,677.0781 Q1931.8594,677.2344 1931.1563,677.2344 Q1928.6563,677.2344 1927.3281,675.5938 Q1926.0156,673.9375 1926.0156,670.8125 Q1926.0156,667.6875 1927.3281,666.0313 Q1928.6563,664.375 1931.1563,664.375 Q1931.8594,664.375 1932.5,664.5313 Q1933.1563,664.6875 1933.7188,664.9844 L1933.7188,667.7031 Q1933.0938,667.125 1932.5,666.8594 Q1931.9063,666.5781 1931.2813,666.5781 Q1929.9375,666.5781 1929.25,667.6563 Q1928.5625,668.7188 1928.5625,670.8125 Q1928.5625,672.9063 1929.25,673.9844 Q1929.9375,675.0469 1931.2813,675.0469 Q1931.9063,675.0469 1932.5,674.7813 Q1933.0938,674.5 1933.7188,673.9219 L1933.7188,676.6406 Z " fill="#000000"/><text fill="#000000" font-family="sans-serif" font-size="14" lengthAdjust="spacing" textLength="35" x="1951.25" y="676.432">Block</text><line style="stroke:#181818;stroke-width:0.5;" x1="1767.5" x2="2137.5" y1="687" y2="687"/><text fill="#000000" font-family="sans-serif" font-size="14" lengthAdjust="spacing" textLength="97" x="1772.5" y="705.9659">args : list[Any]</text><text fill="#000000" font-family="sans-serif" font-size="14" lengthAdjust="spacing" textLength="137" x="1772.5" y="725.0339">assign_arr : list[Any]</text><text fill="#000000" font-family="sans-serif" font-size="14" lengthAdjust="spacing" textLength="164" x="1772.5" y="744.1018">attributes : dict[str, Any]</text><text fill="#000000" font-family="sans-serif" font-size="14" lengthAdjust="spacing" textLength="182" x="1772.5" y="763.1697">block_value : Optional[Any]</text><text fill="#000000" font-family="sans-serif" font-size="14" lengthAdjust="spacing" textLength="116" x="1772.5" y="782.2376">class_frame : Any</text><text fill="#000000" font-family="sans-serif" font-size="14" lengthAdjust="spacing" textLength="201" x="1772.5" y="801.3055">current_frame : Optional[Any]</text><text fill="#000000" font-family="sans-serif" font-size="14" lengthAdjust="spacing" textLength="120" x="1772.5" y="820.3734">current_root : Any</text><text fill="#000000" font-family="sans-serif" font-size="14" lengthAdjust="spacing" textLength="117" x="1772.5" y="839.4414">frame_stack : Any</text><text fill="#000000" font-family="sans-serif" font-size="14" lengthAdjust="spacing" textLength="142" x="1772.5" y="858.5093">program_frame : Any</text><line style="stroke:#181818;stroke-width:0.5;" x1="1767.5" x2="2137.5" y1="866.6113" y2="866.6113"/><text fill="#000000" font-family="sans-serif" font-size="14" lengthAdjust="spacing" textLength="123" x="1772.5" y="885.5772">is_block() -&gt; Result</text><text fill="#000000" font-family="sans-serif" font-size="14" font-style="italic" lengthAdjust="spacing" textLength="360" x="1772.5" y="904.6451">value(args: list[Any] | None, frame: Any) -&gt; Result | None</text><text fill="#000000" font-family="sans-serif" font-size="14" font-style="italic" lengthAdjust="spacing" textLength="240" x="1772.5" y="923.713">while_true(arg: Any) -&gt; Result | Object</text></g><!--class builtin_classes.builtin_block.BlockBuiltin--><g id="elem_builtin_classes.builtin_block.BlockBuiltin"><rect codeLine="17" fill="#F1F1F1" height="124.2717" id="builtin_classes.builtin_block.BlockBuiltin" rx="2.5" ry="2.5" style="stroke:#181818;stroke-width:0.5;" width="449" x="1728" y="441.5"/><ellipse cx="1908.75" cy="457.5" fill="#ADD1B2" rx="11" ry="11" style="stroke:#181818;stroke-width:1.0;"/><path d="M1911.7188,463.1406 Q1911.1406,463.4375 1910.5,463.5781 Q1909.8594,463.7344 1909.1563,463.7344 Q1906.6563,463.7344 1905.3281,462.0938 Q1904.0156,460.4375 1904.0156,457.3125 Q1904.0156,454.1875 1905.3281,452.5313 Q1906.6563,450.875 1909.1563,450.875 Q1909.8594,450.875 1910.5,451.0313 Q1911.1563,451.1875 1911.7188,451.4844 L1911.7188,454.2031 Q1911.0938,453.625 1910.5,453.3594 Q1909.9063,453.0781 1909.2813,453.0781 Q1907.9375,453.0781 1907.25,454.1563 Q1906.5625,455.2188 1906.5625,457.3125 Q1906.5625,459.4063 1907.25,460.4844 Q1907.9375,461.5469 1909.2813,461.5469 Q1909.9063,461.5469 1910.5,461.2813 Q1911.0938,461 1911.7188,460.4219 L1911.7188,463.1406 Z " fill="#000000"/><text fill="#000000" font-family="sans-serif" font-size="14" lengthAdjust="spacing" textLength="79" x="1929.25" y="462.932">BlockBuiltin</text><line style="stroke:#181818;stroke-width:0.5;" x1="1729" x2="2176" y1="473.5" y2="473.5"/><text fill="#000000" font-family="sans-serif" font-size="14" lengthAdjust="spacing" textLength="77" x="1734" y="492.4659">block_value</text><text fill="#000000" font-family="sans-serif" font-size="14" lengthAdjust="spacing" textLength="96" x="1734" y="511.5339">current_frame</text><line style="stroke:#181818;stroke-width:0.5;" x1="1729" x2="2176" y1="519.6358" y2="519.6358"/><text fill="#000000" font-family="sans-serif" font-size="14" lengthAdjust="spacing" textLength="437" x="1734" y="538.6018">value(args: list[Any] | None, frame: BlockFrame | None) -&gt; Result</text><text fill="#000000" font-family="sans-serif" font-size="14" lengthAdjust="spacing" textLength="304" x="1734" y="557.6697">while_true(args: list[Block]) -&gt; Result | Object</text></g><!--class builtin_classes.builtin_object.Object--><g id="elem_builtin_classes.builtin_object.Object"><rect codeLine="24" fill="#F1F1F1" height="334.0188" id="builtin_classes.builtin_object.Object" rx="2.5" ry="2.5" style="stroke:#181818;stroke-width:0.5;" width="403" x="1751" y="993"/><ellipse cx="1926.25" cy="1009" fill="#ADD1B2" rx="11" ry="11" style="stroke:#181818;stroke-width:1.0;"/><path d="M1929.2188,1014.6406 Q1928.6406,1014.9375 1928,1015.0781 Q1927.3594,1015.2344 1926.6563,1015.2344 Q1924.1563,1015.2344 1922.8281,1013.5938 Q1921.5156,1011.9375 1921.5156,1008.8125 Q1921.5156,1005.6875 1922.8281,1004.0313 Q1924.1563,1002.375 1926.6563,1002.375 Q1927.3594,1002.375 1928,1002.5313 Q1928.6563,1002.6875 1929.2188,1002.9844 L1929.2188,1005.7031 Q1928.5938,1005.125 1928,1004.8594 Q1927.4063,1004.5781 1926.7813,1004.5781 Q1925.4375,1004.5781 1924.75,1005.6563 Q1924.0625,1006.7188 1924.0625,1008.8125 Q1924.0625,1010.9063 1924.75,1011.9844 Q1925.4375,1013.0469 1926.7813,1013.0469 Q1927.4063,1013.0469 1928,1012.7813 Q1928.5938,1012.5 1929.2188,1011.9219 L1929.2188,1014.6406 Z " fill="#000000"/><text fill="#000000" font-family="sans-serif" font-size="14" lengthAdjust="spacing" textLength="44" x="1946.75" y="1014.432">Object</text><line style="stroke:#181818;stroke-width:0.5;" x1="1752" x2="2153" y1="1025" y2="1025"/><text fill="#000000" font-family="sans-serif" font-size="14" lengthAdjust="spacing" textLength="164" x="1757" y="1043.9659">attributes : dict[str, Any]</text><text fill="#000000" font-family="sans-serif" font-size="14" lengthAdjust="spacing" textLength="112" x="1757" y="1063.0339">is_receiver : bool</text><text fill="#000000" font-family="sans-serif" font-size="14" lengthAdjust="spacing" textLength="157" x="1757" y="1082.1018">methods : dict[str, Any]</text><text fill="#000000" font-family="sans-serif" font-size="14" lengthAdjust="spacing" textLength="168" x="1757" y="1101.1697">obj_value : Optional[Any]</text><text fill="#000000" font-family="sans-serif" font-size="14" lengthAdjust="spacing" textLength="93" x="1757" y="1120.2376">result : Result</text><line style="stroke:#181818;stroke-width:0.5;" x1="1752" x2="2153" y1="1128.3396" y2="1128.3396"/><text fill="#000000" font-family="sans-serif" font-size="14" lengthAdjust="spacing" textLength="192" x="1757" y="1147.3055">as_string() -&gt; Result | Object</text><text fill="#000000" font-family="sans-serif" font-size="14" lengthAdjust="spacing" textLength="391" x="1757" y="1166.3734">constructor_from(args: list[Any] | None) -&gt; Result | Object</text><text fill="#000000" font-family="sans-serif" font-size="14" lengthAdjust="spacing" textLength="242" x="1757" y="1185.4414">constructor_new() -&gt; Result | Object</text><text fill="#000000" font-family="sans-serif" font-size="14" lengthAdjust="spacing" textLength="273" x="1757" y="1204.5093">equal_to(args: list[Any] | None) -&gt; Result</text><text fill="#000000" font-family="sans-serif" font-size="14" lengthAdjust="spacing" textLength="241" x="1757" y="1223.5772">identical_to(args: list[Any]) -&gt; Result</text><text fill="#000000" font-family="sans-serif" font-size="14" lengthAdjust="spacing" textLength="123" x="1757" y="1242.6451">is_block() -&gt; Result</text><text fill="#000000" font-family="sans-serif" font-size="14" lengthAdjust="spacing" textLength="142" x="1757" y="1261.713">is_boolean() -&gt; Result</text><text fill="#000000" font-family="sans-serif" font-size="14" lengthAdjust="spacing" textLength="105" x="1757" y="1280.7809">is_nil() -&gt; Result</text><text fill="#000000" font-family="sans-serif" font-size="14" lengthAdjust="spacing" textLength="142" x="1757" y="1299.8489">is_number() -&gt; Result</text><text fill="#000000" font-family="sans-serif" font-size="14" lengthAdjust="spacing" textLength="128" x="1757" y="1318.9168">is_string() -&gt; Result</text></g><!--class helper_objects.class_record.ClassRecord--><g id="elem_helper_objects.class_record.ClassRecord"><rect codeLine="43" fill="#F1F1F1" height="181.4754" id="helper_objects.class_record.ClassRecord" rx="2.5" ry="2.5" style="stroke:#181818;stroke-width:0.5;" width="633" x="7" y="413"/><ellipse cx="278.25" cy="429" fill="#ADD1B2" rx="11" ry="11" style="stroke:#181818;stroke-width:1.0;"/><path d="M281.2188,434.6406 Q280.6406,434.9375 280,435.0781 Q279.3594,435.2344 278.6563,435.2344 Q276.1563,435.2344 274.8281,433.5938 Q273.5156,431.9375 273.5156,428.8125 Q273.5156,425.6875 274.8281,424.0313 Q276.1563,422.375 278.6563,422.375 Q279.3594,422.375 280,422.5313 Q280.6563,422.6875 281.2188,422.9844 L281.2188,425.7031 Q280.5938,425.125 280,424.8594 Q279.4063,424.5781 278.7813,424.5781 Q277.4375,424.5781 276.75,425.6563 Q276.0625,426.7188 276.0625,428.8125 Q276.0625,430.9063 276.75,431.9844 Q277.4375,433.0469 278.7813,433.0469 Q279.4063,433.0469 280,432.7813 Q280.5938,432.5 281.2188,431.9219 L281.2188,434.6406 Z " fill="#000000"/><text fill="#000000" font-family="sans-serif" font-size="14" lengthAdjust="spacing" textLength="82" x="298.75" y="434.432">ClassRecord</text><line style="stroke:#181818;stroke-width:0.5;" x1="8" x2="639" y1="445" y2="445"/><text fill="#000000" font-family="sans-serif" font-size="14" lengthAdjust="spacing" textLength="89" x="13" y="463.9659">base_obj : str</text><text fill="#000000" font-family="sans-serif" font-size="14" lengthAdjust="spacing" textLength="135" x="13" y="483.0339">current_class_frame</text><text fill="#000000" font-family="sans-serif" font-size="14" lengthAdjust="spacing" textLength="120" x="13" y="502.1018">current_root : Any</text><text fill="#000000" font-family="sans-serif" font-size="14" lengthAdjust="spacing" textLength="80" x="13" y="521.1697">frame_stack</text><text fill="#000000" font-family="sans-serif" font-size="14" lengthAdjust="spacing" textLength="114" x="13" y="540.2376">parent_class : str</text><text fill="#000000" font-family="sans-serif" font-size="14" lengthAdjust="spacing" textLength="105" x="13" y="559.3055">program_frame</text><line style="stroke:#181818;stroke-width:0.5;" x1="8" x2="639" y1="567.4075" y2="567.4075"/><text fill="#000000" font-family="sans-serif" font-size="14" lengthAdjust="spacing" textLength="621" x="13" y="586.3734">methods_extension(methods: dict[str, Any] | None, rec: ClassRecord | None) -&gt; dict[str, Any]</text></g><!--class frame_objects.frames.ClassFrame--><g id="elem_frame_objects.frames.ClassFrame"><rect codeLine="54" fill="#F1F1F1" height="143.3396" id="frame_objects.frames.ClassFrame" rx="2.5" ry="2.5" style="stroke:#181818;stroke-width:0.5;" width="276" x="1126.5" y="191"/><ellipse cx="1221.75" cy="207" fill="#ADD1B2" rx="11" ry="11" style="stroke:#181818;stroke-width:1.0;"/><path d="M1224.7188,212.6406 Q1224.1406,212.9375 1223.5,213.0781 Q1222.8594,213.2344 1222.1563,213.2344 Q1219.6563,213.2344 1218.3281,211.5938 Q1217.0156,209.9375 1217.0156,206.8125 Q1217.0156,203.6875 1218.3281,202.0313 Q1219.6563,200.375 1222.1563,200.375 Q1222.8594,200.375 1223.5,200.5313 Q1224.1563,200.6875 1224.7188,200.9844 L1224.7188,203.7031 Q1224.0938,203.125 1223.5,202.8594 Q1222.9063,202.5781 1222.2813,202.5781 Q1220.9375,202.5781 1220.25,203.6563 Q1219.5625,204.7188 1219.5625,206.8125 Q1219.5625,208.9063 1220.25,209.9844 Q1220.9375,211.0469 1222.2813,211.0469 Q1222.9063,211.0469 1223.5,210.7813 Q1224.0938,210.5 1224.7188,209.9219 L1224.7188,212.6406 Z " fill="#000000"/><text fill="#000000" font-family="sans-serif" font-size="14" lengthAdjust="spacing" textLength="77" x="1242.25" y="212.432">ClassFrame</text><line style="stroke:#181818;stroke-width:0.5;" x1="1127.5" x2="1401.5" y1="223" y2="223"/><text fill="#000000" font-family="sans-serif" font-size="14" lengthAdjust="spacing" textLength="119" x="1132.5" y="241.9659">current_class : str</text><text fill="#000000" font-family="sans-serif" font-size="14" lengthAdjust="spacing" textLength="114" x="1132.5" y="261.0339">parent_class : str</text><line style="stroke:#181818;stroke-width:0.5;" x1="1127.5" x2="1401.5" y1="269.1358" y2="269.1358"/><text fill="#000000" font-family="sans-serif" font-size="14" lengthAdjust="spacing" textLength="98" x="1132.5" y="288.1018">print() -&gt; None</text><text fill="#000000" font-family="sans-serif" font-size="14" lengthAdjust="spacing" textLength="234" x="1132.5" y="307.1697">read(selector: str) -&gt; Block | Object</text><text fill="#000000" font-family="sans-serif" font-size="14" lengthAdjust="spacing" textLength="264" x="1132.5" y="326.2376">write(selector: str, block: Block) -&gt; None</text></g><!--class frame_objects.frames.Frame--><g id="elem_frame_objects.frames.Frame"><rect codeLine="61" fill="#F1F1F1" height="124.2717" id="frame_objects.frames.Frame" rx="2.5" ry="2.5" style="stroke:#181818;stroke-width:0.5;" width="162" x="1183.5" y="441.5"/><ellipse cx="1239.25" cy="457.5" fill="#ADD1B2" rx="11" ry="11" style="stroke:#181818;stroke-width:1.0;"/><path d="M1242.2188,463.1406 Q1241.6406,463.4375 1241,463.5781 Q1240.3594,463.7344 1239.6563,463.7344 Q1237.1563,463.7344 1235.8281,462.0938 Q1234.5156,460.4375 1234.5156,457.3125 Q1234.5156,454.1875 1235.8281,452.5313 Q1237.1563,450.875 1239.6563,450.875 Q1240.3594,450.875 1241,451.0313 Q1241.6563,451.1875 1242.2188,451.4844 L1242.2188,454.2031 Q1241.5938,453.625 1241,453.3594 Q1240.4063,453.0781 1239.7813,453.0781 Q1238.4375,453.0781 1237.75,454.1563 Q1237.0625,455.2188 1237.0625,457.3125 Q1237.0625,459.4063 1237.75,460.4844 Q1238.4375,461.5469 1239.7813,461.5469 Q1240.4063,461.5469 1241,461.2813 Q1241.5938,461 1242.2188,460.4219 L1242.2188,463.1406 Z " fill="#000000"/><text fill="#000000" font-family="sans-serif" font-size="14" lengthAdjust="spacing" textLength="42" x="1259.75" y="462.932">Frame</text><line style="stroke:#181818;stroke-width:0.5;" x1="1184.5" x2="1344.5" y1="473.5" y2="473.5"/><text fill="#000000" font-family="sans-serif" font-size="14" lengthAdjust="spacing" textLength="150" x="1189.5" y="492.4659">obj_dict : dict[str, Any]</text><line style="stroke:#181818;stroke-width:0.5;" x1="1184.5" x2="1344.5" y1="500.5679" y2="500.5679"/><text fill="#000000" font-family="sans-serif" font-size="14" font-style="italic" lengthAdjust="spacing" textLength="92" x="1189.5" y="519.5339">print() -&gt; None</text><text fill="#000000" font-family="sans-serif" font-size="14" font-style="italic" lengthAdjust="spacing" textLength="146" x="1189.5" y="538.6018">read(_name: str) -&gt; Any</text><text fill="#000000" font-family="sans-serif" font-size="14" font-style="italic" lengthAdjust="spacing" textLength="93" x="1189.5" y="557.6697">write() -&gt; None</text></g><!--class frame_objects.frames.BlockFrame--><g id="elem_frame_objects.frames.BlockFrame"><rect codeLine="67" fill="#F1F1F1" height="124.2717" id="frame_objects.frames.BlockFrame" rx="2.5" ry="2.5" style="stroke:#181818;stroke-width:0.5;" width="265" x="1438" y="200.5"/><ellipse cx="1527.75" cy="216.5" fill="#ADD1B2" rx="11" ry="11" style="stroke:#181818;stroke-width:1.0;"/><path d="M1530.7188,222.1406 Q1530.1406,222.4375 1529.5,222.5781 Q1528.8594,222.7344 1528.1563,222.7344 Q1525.6563,222.7344 1524.3281,221.0938 Q1523.0156,219.4375 1523.0156,216.3125 Q1523.0156,213.1875 1524.3281,211.5313 Q1525.6563,209.875 1528.1563,209.875 Q1528.8594,209.875 1529.5,210.0313 Q1530.1563,210.1875 1530.7188,210.4844 L1530.7188,213.2031 Q1530.0938,212.625 1529.5,212.3594 Q1528.9063,212.0781 1528.2813,212.0781 Q1526.9375,212.0781 1526.25,213.1563 Q1525.5625,214.2188 1525.5625,216.3125 Q1525.5625,218.4063 1526.25,219.4844 Q1526.9375,220.5469 1528.2813,220.5469 Q1528.9063,220.5469 1529.5,220.2813 Q1530.0938,220 1530.7188,219.4219 L1530.7188,222.1406 Z " fill="#000000"/><text fill="#000000" font-family="sans-serif" font-size="14" lengthAdjust="spacing" textLength="77" x="1548.25" y="221.932">BlockFrame</text><line style="stroke:#181818;stroke-width:0.5;" x1="1439" x2="1702" y1="232.5" y2="232.5"/><text fill="#000000" font-family="sans-serif" font-size="14" lengthAdjust="spacing" textLength="150" x="1444" y="251.4659">parent : Optional[Any]</text><line style="stroke:#181818;stroke-width:0.5;" x1="1439" x2="1702" y1="259.5679" y2="259.5679"/><text fill="#000000" font-family="sans-serif" font-size="14" lengthAdjust="spacing" textLength="98" x="1444" y="278.5339">print() -&gt; None</text><text fill="#000000" font-family="sans-serif" font-size="14" lengthAdjust="spacing" textLength="168" x="1444" y="297.6018">read(name: str) -&gt; Object</text><text fill="#000000" font-family="sans-serif" font-size="14" lengthAdjust="spacing" textLength="253" x="1444" y="316.6697">write(name: str, expr: Object) -&gt; None</text></g><!--class frame_objects.frames.ProgramFrame--><g id="elem_frame_objects.frames.ProgramFrame"><rect codeLine="73" fill="#F1F1F1" height="124.2717" id="frame_objects.frames.ProgramFrame" rx="2.5" ry="2.5" style="stroke:#181818;stroke-width:0.5;" width="256" x="835.5" y="200.5"/><ellipse cx="909.25" cy="216.5" fill="#ADD1B2" rx="11" ry="11" style="stroke:#181818;stroke-width:1.0;"/><path d="M912.2188,222.1406 Q911.6406,222.4375 911,222.5781 Q910.3594,222.7344 909.6563,222.7344 Q907.1563,222.7344 905.8281,221.0938 Q904.5156,219.4375 904.5156,216.3125 Q904.5156,213.1875 905.8281,211.5313 Q907.1563,209.875 909.6563,209.875 Q910.3594,209.875 911,210.0313 Q911.6563,210.1875 912.2188,210.4844 L912.2188,213.2031 Q911.5938,212.625 911,212.3594 Q910.4063,212.0781 909.7813,212.0781 Q908.4375,212.0781 907.75,213.1563 Q907.0625,214.2188 907.0625,216.3125 Q907.0625,218.4063 907.75,219.4844 Q908.4375,220.5469 909.7813,220.5469 Q910.4063,220.5469 911,220.2813 Q911.5938,220 912.2188,219.4219 L912.2188,222.1406 Z " fill="#000000"/><text fill="#000000" font-family="sans-serif" font-size="14" lengthAdjust="spacing" textLength="100" x="929.75" y="221.932">ProgramFrame</text><line style="stroke:#181818;stroke-width:0.5;" x1="836.5" x2="1090.5" y1="232.5" y2="232.5"/><line style="stroke:#181818;stroke-width:0.5;" x1="836.5" x2="1090.5" y1="240.5" y2="240.5"/><text fill="#000000" font-family="sans-serif" font-size="14" lengthAdjust="spacing" textLength="244" x="841.5" y="259.4659">find_object(name: str) -&gt; Any | None</text><text fill="#000000" font-family="sans-serif" font-size="14" lengthAdjust="spacing" textLength="98" x="841.5" y="278.5339">print() -&gt; None</text><text fill="#000000" font-family="sans-serif" font-size="14" lengthAdjust="spacing" textLength="144" x="841.5" y="297.6018">read(child: str) -&gt; Any</text><text fill="#000000" font-family="sans-serif" font-size="14" lengthAdjust="spacing" textLength="244" x="841.5" y="316.6697">write(child: str, parent: Any) -&gt; None</text></g><!--class frame_objects.frame_stack.FrameStack--><g id="elem_frame_objects.frame_stack.FrameStack"><rect codeLine="79" fill="#F1F1F1" height="124.2717" id="frame_objects.frame_stack.FrameStack" rx="2.5" ry="2.5" style="stroke:#181818;stroke-width:0.5;" width="235" x="741" y="441.5"/><ellipse cx="815.75" cy="457.5" fill="#ADD1B2" rx="11" ry="11" style="stroke:#181818;stroke-width:1.0;"/><path d="M818.7188,463.1406 Q818.1406,463.4375 817.5,463.5781 Q816.8594,463.7344 816.1563,463.7344 Q813.6563,463.7344 812.3281,462.0938 Q811.0156,460.4375 811.0156,457.3125 Q811.0156,454.1875 812.3281,452.5313 Q813.6563,450.875 816.1563,450.875 Q816.8594,450.875 817.5,451.0313 Q818.1563,451.1875 818.7188,451.4844 L818.7188,454.2031 Q818.0938,453.625 817.5,453.3594 Q816.9063,453.0781 816.2813,453.0781 Q814.9375,453.0781 814.25,454.1563 Q813.5625,455.2188 813.5625,457.3125 Q813.5625,459.4063 814.25,460.4844 Q814.9375,461.5469 816.2813,461.5469 Q816.9063,461.5469 817.5,461.2813 Q818.0938,461 818.7188,460.4219 L818.7188,463.1406 Z " fill="#000000"/><text fill="#000000" font-family="sans-serif" font-size="14" lengthAdjust="spacing" textLength="77" x="836.25" y="462.932">FrameStack</text><line style="stroke:#181818;stroke-width:0.5;" x1="742" x2="975" y1="473.5" y2="473.5"/><text fill="#000000" font-family="sans-serif" font-size="14" lengthAdjust="spacing" textLength="118" x="747" y="492.4659">stack : list[Frame]</text><line style="stroke:#181818;stroke-width:0.5;" x1="742" x2="975" y1="500.5679" y2="500.5679"/><text fill="#000000" font-family="sans-serif" font-size="14" lengthAdjust="spacing" textLength="91" x="747" y="519.5339">pop() -&gt; None</text><text fill="#000000" font-family="sans-serif" font-size="14" lengthAdjust="spacing" textLength="223" x="747" y="538.6018">push(new_frame: Frame) -&gt; None</text><text fill="#000000" font-family="sans-serif" font-size="14" lengthAdjust="spacing" textLength="93" x="747" y="557.6697">top() -&gt; Frame</text></g><!--class frame_objects.frame_stack.BlockFrameStack--><g id="elem_frame_objects.frame_stack.BlockFrameStack"><rect codeLine="85" fill="#F1F1F1" height="48" id="frame_objects.frame_stack.BlockFrameStack" rx="2.5" ry="2.5" style="stroke:#181818;stroke-width:0.5;" width="144" x="656.5" y="238.5"/><ellipse cx="671.5" cy="254.5" fill="#ADD1B2" rx="11" ry="11" style="stroke:#181818;stroke-width:1.0;"/><path d="M674.4688,260.1406 Q673.8906,260.4375 673.25,260.5781 Q672.6094,260.7344 671.9063,260.7344 Q669.4063,260.7344 668.0781,259.0938 Q666.7656,257.4375 666.7656,254.3125 Q666.7656,251.1875 668.0781,249.5313 Q669.4063,247.875 671.9063,247.875 Q672.6094,247.875 673.25,248.0313 Q673.9063,248.1875 674.4688,248.4844 L674.4688,251.2031 Q673.8438,250.625 673.25,250.3594 Q672.6563,250.0781 672.0313,250.0781 Q670.6875,250.0781 670,251.1563 Q669.3125,252.2188 669.3125,254.3125 Q669.3125,256.4063 670,257.4844 Q670.6875,258.5469 672.0313,258.5469 Q672.6563,258.5469 673.25,258.2813 Q673.8438,258 674.4688,257.4219 L674.4688,260.1406 Z " fill="#000000"/><text fill="#000000" font-family="sans-serif" font-size="14" lengthAdjust="spacing" textLength="112" x="685.5" y="259.932">BlockFrameStack</text><line style="stroke:#181818;stroke-width:0.5;" x1="657.5" x2="799.5" y1="270.5" y2="270.5"/><line style="stroke:#181818;stroke-width:0.5;" x1="657.5" x2="799.5" y1="278.5" y2="278.5"/></g><!--class interpreter.interpreter.Interpreter--><g id="elem_interpreter.interpreter.Interpreter"><rect codeLine="91" fill="#F1F1F1" height="105.2038" id="interpreter.interpreter.Interpreter" rx="2.5" ry="2.5" style="stroke:#181818;stroke-width:0.5;" width="318" x="314.5" y="7"/><ellipse cx="431.75" cy="23" fill="#ADD1B2" rx="11" ry="11" style="stroke:#181818;stroke-width:1.0;"/><path d="M434.7188,28.6406 Q434.1406,28.9375 433.5,29.0781 Q432.8594,29.2344 432.1563,29.2344 Q429.6563,29.2344 428.3281,27.5938 Q427.0156,25.9375 427.0156,22.8125 Q427.0156,19.6875 428.3281,18.0313 Q429.6563,16.375 432.1563,16.375 Q432.8594,16.375 433.5,16.5313 Q434.1563,16.6875 434.7188,16.9844 L434.7188,19.7031 Q434.0938,19.125 433.5,18.8594 Q432.9063,18.5781 432.2813,18.5781 Q430.9375,18.5781 430.25,19.6563 Q429.5625,20.7188 429.5625,22.8125 Q429.5625,24.9063 430.25,25.9844 Q430.9375,27.0469 432.2813,27.0469 Q432.9063,27.0469 433.5,26.7813 Q434.0938,26.5 434.7188,25.9219 L434.7188,28.6406 Z " fill="#000000"/><text fill="#FF0000" font-family="sans-serif" font-size="14" lengthAdjust="spacing" textLength="75" x="452.25" y="28.432">Interpreter</text><line style="stroke:#181818;stroke-width:0.5;" x1="315.5" x2="631.5" y1="39" y2="39"/><text fill="#000000" font-family="sans-serif" font-size="14" lengthAdjust="spacing" textLength="237" x="320.5" y="57.9659">current_program : Program | None</text><line style="stroke:#181818;stroke-width:0.5;" x1="315.5" x2="631.5" y1="66.0679" y2="66.0679"/><text fill="#000000" font-family="sans-serif" font-size="14" lengthAdjust="spacing" textLength="223" x="320.5" y="85.0339">execute(input_io: TextIO) -&gt; None</text><text fill="#000000" font-family="sans-serif" font-size="14" lengthAdjust="spacing" textLength="306" x="320.5" y="104.1018">load_program(source_file_path: Path) -&gt; None</text></g><!--class interpreter.exceptions.InterpreterError--><g id="elem_interpreter.exceptions.InterpreterError"><rect codeLine="96" fill="#F1F1F1" height="67.0679" id="interpreter.exceptions.InterpreterError" rx="2.5" ry="2.5" style="stroke:#181818;stroke-width:0.5;" width="141" x="212" y="229"/><ellipse cx="227" cy="245" fill="#ADD1B2" rx="11" ry="11" style="stroke:#181818;stroke-width:1.0;"/><path d="M229.9688,250.6406 Q229.3906,250.9375 228.75,251.0781 Q228.1094,251.2344 227.4063,251.2344 Q224.9063,251.2344 223.5781,249.5938 Q222.2656,247.9375 222.2656,244.8125 Q222.2656,241.6875 223.5781,240.0313 Q224.9063,238.375 227.4063,238.375 Q228.1094,238.375 228.75,238.5313 Q229.4063,238.6875 229.9688,238.9844 L229.9688,241.7031 Q229.3438,241.125 228.75,240.8594 Q228.1563,240.5781 227.5313,240.5781 Q226.1875,240.5781 225.5,241.6563 Q224.8125,242.7188 224.8125,244.8125 Q224.8125,246.9063 225.5,247.9844 Q226.1875,249.0469 227.5313,249.0469 Q228.1563,249.0469 228.75,248.7813 Q229.3438,248.5 229.9688,247.9219 L229.9688,250.6406 Z " fill="#000000"/><text fill="#FF0000" font-family="sans-serif" font-size="14" lengthAdjust="spacing" textLength="109" x="241" y="250.432">InterpreterError</text><line style="stroke:#181818;stroke-width:0.5;" x1="213" x2="352" y1="261" y2="261"/><text fill="#000000" font-family="sans-serif" font-size="14" lengthAdjust="spacing" textLength="72" x="218" y="279.9659">error_code</text><line style="stroke:#181818;stroke-width:0.5;" x1="213" x2="352" y1="288.0679" y2="288.0679"/></g><!--class interpreter.error_codes.ErrorCode--><g id="elem_interpreter.error_codes.ErrorCode"><rect codeLine="99" fill="#F1F1F1" height="86.1358" id="interpreter.error_codes.ErrorCode" rx="2.5" ry="2.5" style="stroke:#181818;stroke-width:0.5;" width="267" x="12" y="16.5"/><ellipse cx="107.25" cy="32.5" fill="#ADD1B2" rx="11" ry="11" style="stroke:#181818;stroke-width:1.0;"/><path d="M110.2188,38.1406 Q109.6406,38.4375 109,38.5781 Q108.3594,38.7344 107.6563,38.7344 Q105.1563,38.7344 103.8281,37.0938 Q102.5156,35.4375 102.5156,32.3125 Q102.5156,29.1875 103.8281,27.5313 Q105.1563,25.875 107.6563,25.875 Q108.3594,25.875 109,26.0313 Q109.6563,26.1875 110.2188,26.4844 L110.2188,29.2031 Q109.5938,28.625 109,28.3594 Q108.4063,28.0781 107.7813,28.0781 Q106.4375,28.0781 105.75,29.1563 Q105.0625,30.2188 105.0625,32.3125 Q105.0625,34.4063 105.75,35.4844 Q106.4375,36.5469 107.7813,36.5469 Q108.4063,36.5469 109,36.2813 Q109.5938,36 110.2188,35.4219 L110.2188,38.1406 Z " fill="#000000"/><text fill="#FF0000" font-family="sans-serif" font-size="14" lengthAdjust="spacing" textLength="68" x="127.75" y="37.932">ErrorCode</text><line style="stroke:#181818;stroke-width:0.5;" x1="13" x2="278" y1="48.5" y2="48.5"/><text fill="#000000" font-family="sans-serif" font-size="14" lengthAdjust="spacing" textLength="38" x="18" y="67.4659">name</text><line style="stroke:#181818;stroke-width:0.5;" x1="13" x2="278" y1="75.5679" y2="75.5679"/><text fill="#000000" font-family="sans-serif" font-size="14" lengthAdjust="spacing" textLength="255" x="18" y="94.5339">fire(message: str | None) -&gt; NoReturn</text></g><!--link builtin_classes.builtin_block.BlockBuiltin to helper_objects.interfaces.block_interface.Block--><g id="link_builtin_classes.builtin_block.BlockBuiltin_helper_objects.interfaces.block_interface.Block"><path codeLine="106" d="M1952.5,565.58 C1952.5,591.75 1952.5,605.46 1952.5,636.78 " fill="none" id="builtin_classes.builtin_block.BlockBuiltin-to-helper_objects.interfaces.block_interface.Block" style="stroke:#181818;stroke-width:1.0;"/><polygon fill="none" points="1952.5,654.78,1958.5,636.78,1946.5,636.78,1952.5,654.78" style="stroke:#181818;stroke-width:1.0;"/></g><!--link frame_objects.frame_stack.BlockFrameStack to frame_objects.frame_stack.FrameStack--><g id="link_frame_objects.frame_stack.BlockFrameStack_frame_objects.frame_stack.FrameStack"><path codeLine="107" d="M758.03,286.75 C794.55,315.58 852.14,361.29 853.5,364 C865.31,387.55 868.5442,398.3005 867.6842,423.4905 " fill="none" id="frame_objects.frame_stack.BlockFrameStack-to-frame_objects.frame_stack.FrameStack" style="stroke:#181818;stroke-width:1.0;"/><polygon fill="none" points="867.07,441.48,873.6807,423.6952,861.6877,423.2858,867.07,441.48" style="stroke:#181818;stroke-width:1.0;"/></g><!--link frame_objects.frames.BlockFrame to frame_objects.frames.Frame--><g id="link_frame_objects.frames.BlockFrame_frame_objects.frames.Frame"><path codeLine="108" d="M1492.09,324.74 C1446.23,360.56 1402.7166,394.5512 1356.8866,430.3412 " fill="none" id="frame_objects.frames.BlockFrame-to-frame_objects.frames.Frame" style="stroke:#181818;stroke-width:1.0;"/><polygon fill="none" points="1342.7,441.42,1360.5796,435.0701,1353.1937,425.6123,1342.7,441.42" style="stroke:#181818;stroke-width:1.0;"/></g><!--link frame_objects.frames.ClassFrame to frame_objects.frames.Frame--><g id="link_frame_objects.frames.ClassFrame_frame_objects.frames.Frame"><path codeLine="109" d="M1264.5,334.24 C1264.5,368.24 1264.5,390.59 1264.5,423.26 " fill="none" id="frame_objects.frames.ClassFrame-to-frame_objects.frames.Frame" style="stroke:#181818;stroke-width:1.0;"/><polygon fill="none" points="1264.5,441.26,1270.5,423.26,1258.5,423.26,1264.5,441.26" style="stroke:#181818;stroke-width:1.0;"/></g><!--link frame_objects.frames.ProgramFrame to frame_objects.frames.Frame--><g id="link_frame_objects.frames.ProgramFrame_frame_objects.frames.Frame"><path codeLine="110" d="M1040.62,324.74 C1085.74,360.56 1128.4027,394.4378 1173.4827,430.2278 " fill="none" id="frame_objects.frames.ProgramFrame-to-frame_objects.frames.Frame" style="stroke:#181818;stroke-width:1.0;"/><polygon fill="none" points="1187.58,441.42,1177.2134,425.5287,1169.7519,434.9269,1187.58,441.42" style="stroke:#181818;stroke-width:1.0;"/></g><!--link helper_objects.interfaces.block_interface.Block to builtin_classes.builtin_object.Object--><g id="link_helper_objects.interfaces.block_interface.Block_builtin_classes.builtin_object.Object"><path codeLine="111" d="M1952.5,932.04 C1952.5,951.91 1952.5,954.53 1952.5,974.89 " fill="none" id="helper_objects.interfaces.block_interface.Block-to-builtin_classes.builtin_object.Object" style="stroke:#181818;stroke-width:1.0;"/><polygon fill="none" points="1952.5,992.89,1958.5,974.89,1946.5,974.89,1952.5,992.89" style="stroke:#181818;stroke-width:1.0;"/></g><!--link frame_objects.frame_stack.BlockFrameStack to helper_objects.class_record.ClassRecord--><g id="link_frame_objects.frame_stack.BlockFrameStack_helper_objects.class_record.ClassRecord"><path codeLine="112" d="M708.81,286.55 C693.9,302.44 672.02,322.68 648.5,334 C579.37,367.27 547.52,330.49 478.5,364 C453.02,376.37 437.6574,386.3199 416.0274,405.0699 " fill="none" id="frame_objects.frame_stack.BlockFrameStack-to-helper_objects.class_record.ClassRecord" style="stroke:#181818;stroke-width:1.0;"/><polygon fill="none" points="406.96,412.93,414.1138,412.0224,416.0274,405.0699,408.8737,405.9775,406.96,412.93" style="stroke:#181818;stroke-width:1.0;"/><text fill="#000000" font-family="sans-serif" font-size="13" lengthAdjust="spacing" textLength="72" x="479.5" y="378.897">frame_stack</text></g><!--link frame_objects.frames.BlockFrame to builtin_classes.builtin_block.BlockBuiltin--><g id="link_frame_objects.frames.BlockFrame_builtin_classes.builtin_block.BlockBuiltin"><path codeLine="113" d="M1668.38,324.74 C1725.63,360.56 1787.4967,399.2657 1844.7067,435.0557 " fill="none" id="frame_objects.frames.BlockFrame-to-builtin_classes.builtin_block.BlockBuiltin" style="stroke:#181818;stroke-width:1.0;"/><polygon fill="none" points="1854.88,441.42,1851.9148,434.8468,1844.7067,435.0557,1847.6719,441.6289,1854.88,441.42" style="stroke:#181818;stroke-width:1.0;"/><text fill="#000000" font-family="sans-serif" font-size="13" lengthAdjust="spacing" textLength="85" x="1762.5" y="378.897">current_frame</text></g><!--link frame_objects.frames.ClassFrame to helper_objects.class_record.ClassRecord--><g id="link_frame_objects.frames.ClassFrame_helper_objects.class_record.ClassRecord"><path codeLine="114" d="M1126.17,328.51 C1120.58,330.47 1115.01,332.31 1109.5,334 C909.09,395.46 849.07,367.23 644.5,413 C643.09,413.32 653.3724,410.9741 651.9624,411.2941 " fill="none" id="frame_objects.frames.ClassFrame-to-helper_objects.class_record.ClassRecord" style="stroke:#181818;stroke-width:1.0;"/><polygon fill="none" points="640.26,413.95,646.9965,416.5229,651.9624,411.2941,645.2259,408.7213,640.26,413.95" style="stroke:#181818;stroke-width:1.0;"/><text fill="#000000" font-family="sans-serif" font-size="13" lengthAdjust="spacing" textLength="119" x="986.5" y="378.897">current_class_frame</text></g><!--link frame_objects.frames.ProgramFrame to helper_objects.class_record.ClassRecord--><g id="link_frame_objects.frames.ProgramFrame_helper_objects.class_record.ClassRecord"><path codeLine="115" d="M845.65,324.57 C836.59,328.1 827.48,331.3 818.5,334 C721.47,363.19 689.03,333.21 592.5,364 C575.26,369.5 572.55,374.65 556.5,383 C537.75,392.76 528.7858,397.4109 509.2158,407.5009 " fill="none" id="frame_objects.frames.ProgramFrame-to-helper_objects.class_record.ClassRecord" style="stroke:#181818;stroke-width:1.0;"/><polygon fill="none" points="498.55,413,505.716,413.8057,509.2158,407.5009,502.0499,406.6952,498.55,413" style="stroke:#181818;stroke-width:1.0;"/><text fill="#000000" font-family="sans-serif" font-size="13" lengthAdjust="spacing" textLength="94" x="593.5" y="378.897">program_frame</text></g><!--link interpreter.error_codes.ErrorCode to interpreter.exceptions.InterpreterError--><g id="link_interpreter.error_codes.ErrorCode_interpreter.exceptions.InterpreterError"><path codeLine="116" d="M167.65,102.94 C177.66,121.21 190.04,142.55 202.5,161 C218.48,184.65 230.8001,200.5594 246.8001,219.7694 " fill="none" id="interpreter.error_codes.ErrorCode-to-interpreter.exceptions.InterpreterError" style="stroke:#181818;stroke-width:1.0;"/><polygon fill="none" points="254.48,228.99,253.7136,221.8197,246.8001,219.7694,247.5665,226.9396,254.48,228.99" style="stroke:#181818;stroke-width:1.0;"/><text fill="#000000" font-family="sans-serif" font-size="13" lengthAdjust="spacing" textLength="65" x="203.5" y="156.897">error_code</text></g><!--link helper_objects.class_record.ClassRecord to interpreter.exceptions.InterpreterError--><g id="link_helper_objects.class_record.ClassRecord_interpreter.exceptions.InterpreterError"><path codeLine="117" d="M308.12,412.82 C301.11,372 294.2758,332.1234 289.1258,302.1434 " fill="none" id="helper_objects.class_record.ClassRecord-to-interpreter.exceptions.InterpreterError" style="stroke:#181818;stroke-width:1.0;stroke-dasharray:7.0,7.0;"/><polygon fill="#181818" points="288.11,296.23,285.6915,305.7773,288.9565,301.1578,293.576,304.4229,288.11,296.23" style="stroke:#181818;stroke-width:1.0;"/><text fill="#000000" font-family="sans-serif" font-size="13" lengthAdjust="spacing" textLength="56" x="303.5" y="378.897">&#171;throws&#187;</text></g><!--link interpreter.interpreter.Interpreter to frame_objects.frames.ProgramFrame--><g id="link_interpreter.interpreter.Interpreter_frame_objects.frames.ProgramFrame"><path codeLine="118" d="M632.67,111.24 C691.81,131.6 758.98,156.51 818.5,183 C830.4,188.3 837.2941,191.4855 849.3941,197.5955 " fill="none" id="interpreter.interpreter.Interpreter-to-frame_objects.frames.ProgramFrame" style="stroke:#181818;stroke-width:1.0;stroke-dasharray:7.0,7.0;"/><polygon fill="#181818" points="854.75,200.3,848.5192,192.6726,850.2868,198.0462,844.9131,199.8138,854.75,200.3" style="stroke:#181818;stroke-width:1.0;"/><text fill="#000000" font-family="sans-serif" font-size="13" lengthAdjust="spacing" textLength="57" x="763.5" y="156.897">&#171;creates&#187;</text></g><!--link interpreter.interpreter.Interpreter to frame_objects.frame_stack.BlockFrameStack--><g id="link_interpreter.interpreter.Interpreter_frame_objects.frame_stack.BlockFrameStack"><path codeLine="119" d="M553.07,112.11 C583.73,133.03 618.55,158.11 648.5,183 C669.45,200.41 687.2508,217.9355 702.8508,234.1555 " fill="none" id="interpreter.interpreter.Interpreter-to-frame_objects.frame_stack.BlockFrameStack" style="stroke:#181818;stroke-width:1.0;stroke-dasharray:7.0,7.0;"/><polygon fill="#181818" points="707.01,238.48,703.6542,229.2205,703.544,234.8763,697.8882,234.7661,707.01,238.48" style="stroke:#181818;stroke-width:1.0;"/><text fill="#000000" font-family="sans-serif" font-size="13" lengthAdjust="spacing" textLength="57" x="616.5" y="156.897">&#171;creates&#187;</text></g><!--link interpreter.interpreter.Interpreter to frame_objects.frames.ClassFrame--><g id="link_interpreter.interpreter.Interpreter_frame_objects.frames.ClassFrame"><path codeLine="120" d="M632.51,78.62 C763.12,96.45 951.64,129.01 1109.5,183 C1116.49,185.39 1118.0051,185.7967 1125.0751,188.6467 " fill="none" id="interpreter.interpreter.Interpreter-to-frame_objects.frames.ClassFrame" style="stroke:#181818;stroke-width:1.0;stroke-dasharray:7.0,7.0;"/><polygon fill="#181818" points="1130.64,190.89,1123.7882,183.8152,1126.0026,189.0206,1120.7972,191.235,1130.64,190.89" style="stroke:#181818;stroke-width:1.0;"/><text fill="#000000" font-family="sans-serif" font-size="13" lengthAdjust="spacing" textLength="57" x="1026.5" y="156.897">&#171;creates&#187;</text></g><!--link interpreter.interpreter.Interpreter to helper_objects.class_record.ClassRecord--><g id="link_interpreter.interpreter.Interpreter_helper_objects.class_record.ClassRecord"><path codeLine="121" d="M457.49,112.13 C437.49,176.01 401.84,287.99 368.5,383 C365.09,392.73 363.4975,397.2275 359.7975,407.3075 " fill="none" id="interpreter.interpreter.Interpreter-to-helper_objects.class_record.ClassRecord" style="stroke:#181818;stroke-width:1.0;stroke-dasharray:7.0,7.0;"/><polygon fill="#181818" points="357.73,412.94,364.5863,405.8695,359.4529,408.2462,357.0762,403.1129,357.73,412.94" style="stroke:#181818;stroke-width:1.0;"/><text fill="#000000" font-family="sans-serif" font-size="13" lengthAdjust="spacing" textLength="57" x="434.5" y="267.897">&#171;creates&#187;</text></g><!--link interpreter.interpreter.Interpreter to interpreter.exceptions.InterpreterError--><g id="link_interpreter.interpreter.Interpreter_interpreter.exceptions.InterpreterError"><path codeLine="122" d="M373.62,112.03 C361.23,120.97 349.45,130.99 339.5,142 C316.77,167.16 303.2861,197.3347 294.2661,223.1947 " fill="none" id="interpreter.interpreter.Interpreter-to-interpreter.exceptions.InterpreterError" style="stroke:#181818;stroke-width:1.0;stroke-dasharray:7.0,7.0;"/><polygon fill="#181818" points="292.29,228.86,299.0309,221.6795,293.9367,224.1389,291.4772,219.0447,292.29,228.86" style="stroke:#181818;stroke-width:1.0;"/><text fill="#000000" font-family="sans-serif" font-size="13" lengthAdjust="spacing" textLength="56" x="340.5" y="156.897">&#171;throws&#187;</text></g><!--link frame_objects.frames.ClassFrame to builtin_classes.builtin_block.BlockBuiltin--><g id="link_frame_objects.frames.ClassFrame_builtin_classes.builtin_block.BlockBuiltin"><path codeLine="123" d="M1402.66,327.37 C1408.65,329.69 1414.62,331.91 1420.5,334 C1550.02,380.02 1588.71,370.74 1719.5,413 C1745.99,421.56 1768.2383,429.3631 1795.1283,439.3931 " fill="none" id="frame_objects.frames.ClassFrame-to-builtin_classes.builtin_block.BlockBuiltin" style="stroke:#181818;stroke-width:1.0;stroke-dasharray:7.0,7.0;"/><polygon fill="#181818" points="1800.75,441.49,1793.7154,434.5969,1796.0653,439.7426,1790.9196,442.0924,1800.75,441.49" style="stroke:#181818;stroke-width:1.0;"/><text fill="#000000" font-family="sans-serif" font-size="13" lengthAdjust="spacing" textLength="51" x="1606.5" y="378.897">&#171;stores&#187;</text></g><!--SRC=[hLTBZzis4BxhLn0vkO1NlHk6WIP8W5oonQQt811eQMoprP8gIMMtsEI_TpYa9Uh1IDxsOakS1-URnqVAW6MIFu9fU0cVeU6QMwMPL18ogyvWBw3PIyPOMNDZs9ktjIh_UiEuOHUe6z25Elu9fJMva1Rq2PsO_EXqYcuX9njomXZNPyDsh1R6VlbD_lFLBneZphBWMaz5rcfnR2qugqgKzeknUiiwkT_h6wzRG8NxnWebUTtRKzZ5IID4bEEoNssr1ccxzHcxeA6Lif4X6HJ6SWJKhpPQdL4msKQOWkBR_CBk3km1J5jR4hpm8yBWfVr1aMzSLYBax3lxX0NO-kt8N-GXI4UEdYwYXi9gxst6vfuAXLO_HjLysuhQ2ab5FVhdWkIkbE6TOEInUgXdbFzfPcbb5KBo_87IvoNZZ0tXNLsHsTSapXweN_mfHD_8kTUyTkj2zs61DPGWle7htADIDIq_ujYeAc63-_oaNxM7iOknSuCTfuKyRn984QQIgDAMEBkOUlMOoFSgUmbFwOtWxvRNXLNB6_W4LTWCefmrcUYcfiK9CBN0vPn8YdfskNqyWfwJJ7D9pOBj4fhbdVjxW5BfQexfFALeakUHBlNCaHjmcbX1t2Vh1o8YeYn1Bn6vu1jISMVNUHimJTPrMW7F5gJ1Njg4bN7hTGE7SUzO77LKk56tOaRcZW0ofbcbxFYehycXDvFtEc6I1cdeu2HGEfnuVFWITLodWLSR0pMuBYLLallJPT2aJrfO6AfkFLC5feaTHtIu02h6uwROfMj-ndjQdWFIImbI8Oa2htYkXqT4xGGd4NFFdEd08tPzYR8-Iq39p0-Zd6Ix4syPF3UOTA-HYFfttySBSSTQ8VAJa5LGsqpo5f-CIHmbdYJLDDqUHI_SXYJr9scYNpwxUKrXyDESzue1nlK6GMH8qf1zrOnYRbfpsI0b5-6a9EMXYhqQVGYiCDiUQ-8SQLEmn8opHB0lLOtZfQ4wV7INlKO3_j8Med_Fu-T8RqGCWTam9w7gSJ7X6KeyXJT2DgqjXDgnFv3nFjuFyr0hNbtzR8ngTGd5oLqR6culw1T_4uMSH_9UQwNtlvBiC845poNGz9XyR1EWWNikIbMbToFrTwWnTTyPcxpJ2exbzMvr4XgGyOtXPpy9CPj_KWzWMosx6jvmkRkx-twuzOQVhUyhShzcNB8bFajv2coTBPrEhx8VyDAIXrk_ayZVgalgJGbNgwynky55PBa0wfQlXjte2s6vFhS4FdVPMbF1M_OONi6MHzPvNyiRkvWpreQKvuUr6-pOVcylMZsPmo5Rmz7Ezt82dTiI3rVyJlflVXFT-x_v7xJMwxokRvJNU5_VA54Xbu0wnpUDw7vlyDxi0lyN]--></g></svg>